<mxfile host="app.diagrams.net" agent="Mozilla/5.0 (Windows NT 10.0; Win64; x64) AppleWebKit/537.36 (KHTML, like Gecko) Chrome/126.0.0.0 Safari/537.36 OPR/112.0.0.0" version="24.7.8">
  <diagram name="PÃ¡gina-1" id="OSh0y8ow7ZwcZCNEwB8L">
    <mxGraphModel dx="1199" dy="651" grid="0" gridSize="10" guides="1" tooltips="1" connect="1" arrows="1" fold="1" page="1" pageScale="1" pageWidth="827" pageHeight="1169" math="0" shadow="0">
      <root>
        <mxCell id="0" />
        <mxCell id="1" parent="0" />
        <mxCell id="Vn6lrdpjVvFAqSHbzr8f-161" style="edgeStyle=orthogonalEdgeStyle;rounded=0;orthogonalLoop=1;jettySize=auto;html=1;entryX=0;entryY=0.5;entryDx=0;entryDy=0;" edge="1" parent="1" source="Vn6lrdpjVvFAqSHbzr8f-154" target="Vn6lrdpjVvFAqSHbzr8f-159">
          <mxGeometry relative="1" as="geometry" />
        </mxCell>
        <mxCell id="Vn6lrdpjVvFAqSHbzr8f-163" style="edgeStyle=orthogonalEdgeStyle;rounded=0;orthogonalLoop=1;jettySize=auto;html=1;" edge="1" parent="1" source="Vn6lrdpjVvFAqSHbzr8f-154" target="Vn6lrdpjVvFAqSHbzr8f-75">
          <mxGeometry relative="1" as="geometry" />
        </mxCell>
        <mxCell id="Vn6lrdpjVvFAqSHbzr8f-154" value="" style="whiteSpace=wrap;html=1;aspect=fixed;fillColor=#b1ddf0;strokeColor=#10739e;" vertex="1" parent="1">
          <mxGeometry x="793.75" y="229" width="118.5" height="118.5" as="geometry" />
        </mxCell>
        <mxCell id="Vn6lrdpjVvFAqSHbzr8f-62" style="edgeStyle=orthogonalEdgeStyle;rounded=0;orthogonalLoop=1;jettySize=auto;html=1;entryX=0.5;entryY=0;entryDx=0;entryDy=0;" edge="1" parent="1" source="Vn6lrdpjVvFAqSHbzr8f-1" target="Vn6lrdpjVvFAqSHbzr8f-61">
          <mxGeometry relative="1" as="geometry" />
        </mxCell>
        <mxCell id="Vn6lrdpjVvFAqSHbzr8f-1" value="PLAYER&lt;div&gt;(client side)&lt;/div&gt;" style="rounded=0;whiteSpace=wrap;html=1;fillColor=#dae8fc;strokeColor=#6c8ebf;gradientColor=#7ea6e0;" vertex="1" parent="1">
          <mxGeometry x="343.5" width="121" height="70" as="geometry" />
        </mxCell>
        <mxCell id="Vn6lrdpjVvFAqSHbzr8f-40" style="edgeStyle=orthogonalEdgeStyle;rounded=0;orthogonalLoop=1;jettySize=auto;html=1;entryX=1;entryY=0.5;entryDx=0;entryDy=0;" edge="1" parent="1" source="Vn6lrdpjVvFAqSHbzr8f-2" target="Vn6lrdpjVvFAqSHbzr8f-6">
          <mxGeometry relative="1" as="geometry" />
        </mxCell>
        <mxCell id="Vn6lrdpjVvFAqSHbzr8f-41" style="edgeStyle=orthogonalEdgeStyle;rounded=0;orthogonalLoop=1;jettySize=auto;html=1;entryX=0;entryY=0.5;entryDx=0;entryDy=0;" edge="1" parent="1" source="Vn6lrdpjVvFAqSHbzr8f-2" target="Vn6lrdpjVvFAqSHbzr8f-7">
          <mxGeometry relative="1" as="geometry" />
        </mxCell>
        <mxCell id="Vn6lrdpjVvFAqSHbzr8f-2" value="player in zone?" style="shape=hexagon;perimeter=hexagonPerimeter2;whiteSpace=wrap;html=1;fixedSize=1;fillColor=#ffe6cc;strokeColor=#d79b00;" vertex="1" parent="1">
          <mxGeometry x="351" y="210" width="106" height="40" as="geometry" />
        </mxCell>
        <mxCell id="Vn6lrdpjVvFAqSHbzr8f-45" style="edgeStyle=orthogonalEdgeStyle;rounded=0;orthogonalLoop=1;jettySize=auto;html=1;entryX=0.5;entryY=0;entryDx=0;entryDy=0;" edge="1" parent="1" source="Vn6lrdpjVvFAqSHbzr8f-6">
          <mxGeometry relative="1" as="geometry">
            <mxPoint x="214.9999999999999" y="265" as="targetPoint" />
          </mxGeometry>
        </mxCell>
        <mxCell id="Vn6lrdpjVvFAqSHbzr8f-6" value="YES" style="rounded=0;whiteSpace=wrap;html=1;fillColor=#d5e8d4;strokeColor=#82b366;" vertex="1" parent="1">
          <mxGeometry x="190" y="215" width="50" height="30" as="geometry" />
        </mxCell>
        <mxCell id="Vn6lrdpjVvFAqSHbzr8f-44" style="edgeStyle=orthogonalEdgeStyle;rounded=0;orthogonalLoop=1;jettySize=auto;html=1;entryX=0.5;entryY=0;entryDx=0;entryDy=0;" edge="1" parent="1" source="Vn6lrdpjVvFAqSHbzr8f-7" target="Vn6lrdpjVvFAqSHbzr8f-43">
          <mxGeometry relative="1" as="geometry" />
        </mxCell>
        <mxCell id="Vn6lrdpjVvFAqSHbzr8f-7" value="NO" style="rounded=0;whiteSpace=wrap;html=1;fillColor=#f8cecc;strokeColor=#b85450;" vertex="1" parent="1">
          <mxGeometry x="530" y="215" width="50" height="30" as="geometry" />
        </mxCell>
        <mxCell id="Vn6lrdpjVvFAqSHbzr8f-20" value="playerLeftZone" style="ellipse;shape=cloud;whiteSpace=wrap;html=1;fillColor=#dae8fc;strokeColor=#6c8ebf;" vertex="1" parent="1">
          <mxGeometry x="856" y="404" width="110" height="60" as="geometry" />
        </mxCell>
        <mxCell id="Vn6lrdpjVvFAqSHbzr8f-49" style="edgeStyle=orthogonalEdgeStyle;rounded=0;orthogonalLoop=1;jettySize=auto;html=1;entryX=0;entryY=0.25;entryDx=0;entryDy=0;" edge="1" parent="1" source="Vn6lrdpjVvFAqSHbzr8f-43" target="Vn6lrdpjVvFAqSHbzr8f-46">
          <mxGeometry relative="1" as="geometry" />
        </mxCell>
        <mxCell id="Vn6lrdpjVvFAqSHbzr8f-51" style="edgeStyle=orthogonalEdgeStyle;rounded=0;orthogonalLoop=1;jettySize=auto;html=1;entryX=1;entryY=0.25;entryDx=0;entryDy=0;" edge="1" parent="1" source="Vn6lrdpjVvFAqSHbzr8f-43" target="Vn6lrdpjVvFAqSHbzr8f-50">
          <mxGeometry relative="1" as="geometry" />
        </mxCell>
        <mxCell id="Vn6lrdpjVvFAqSHbzr8f-43" value="just came out" style="shape=hexagon;perimeter=hexagonPerimeter2;whiteSpace=wrap;html=1;fixedSize=1;fillColor=#ffe6cc;strokeColor=#d79b00;" vertex="1" parent="1">
          <mxGeometry x="502" y="265" width="106" height="40" as="geometry" />
        </mxCell>
        <mxCell id="Vn6lrdpjVvFAqSHbzr8f-58" style="edgeStyle=orthogonalEdgeStyle;rounded=0;orthogonalLoop=1;jettySize=auto;html=1;" edge="1" parent="1" source="Vn6lrdpjVvFAqSHbzr8f-46" target="Vn6lrdpjVvFAqSHbzr8f-57">
          <mxGeometry relative="1" as="geometry" />
        </mxCell>
        <mxCell id="Vn6lrdpjVvFAqSHbzr8f-46" value="NO" style="rounded=0;whiteSpace=wrap;html=1;fillColor=#f8cecc;strokeColor=#b85450;" vertex="1" parent="1">
          <mxGeometry x="590" y="325" width="50" height="30" as="geometry" />
        </mxCell>
        <mxCell id="Vn6lrdpjVvFAqSHbzr8f-50" value="YES" style="rounded=0;whiteSpace=wrap;html=1;fillColor=#d5e8d4;strokeColor=#82b366;" vertex="1" parent="1">
          <mxGeometry x="470" y="325" width="50" height="30" as="geometry" />
        </mxCell>
        <mxCell id="Vn6lrdpjVvFAqSHbzr8f-52" style="edgeStyle=orthogonalEdgeStyle;rounded=0;orthogonalLoop=1;jettySize=auto;html=1;entryX=0;entryY=0.25;entryDx=0;entryDy=0;" edge="1" parent="1" source="Vn6lrdpjVvFAqSHbzr8f-54" target="Vn6lrdpjVvFAqSHbzr8f-55">
          <mxGeometry relative="1" as="geometry" />
        </mxCell>
        <mxCell id="Vn6lrdpjVvFAqSHbzr8f-53" style="edgeStyle=orthogonalEdgeStyle;rounded=0;orthogonalLoop=1;jettySize=auto;html=1;entryX=1;entryY=0.25;entryDx=0;entryDy=0;" edge="1" parent="1" source="Vn6lrdpjVvFAqSHbzr8f-54" target="Vn6lrdpjVvFAqSHbzr8f-56">
          <mxGeometry relative="1" as="geometry" />
        </mxCell>
        <mxCell id="Vn6lrdpjVvFAqSHbzr8f-54" value="&amp;nbsp;work approved" style="shape=hexagon;perimeter=hexagonPerimeter2;whiteSpace=wrap;html=1;fixedSize=1;fillColor=#ffe6cc;strokeColor=#d79b00;" vertex="1" parent="1">
          <mxGeometry x="162" y="265" width="106" height="40" as="geometry" />
        </mxCell>
        <mxCell id="Vn6lrdpjVvFAqSHbzr8f-55" value="NO" style="rounded=0;whiteSpace=wrap;html=1;fillColor=#f8cecc;strokeColor=#b85450;" vertex="1" parent="1">
          <mxGeometry x="250" y="325" width="50" height="30" as="geometry" />
        </mxCell>
        <mxCell id="Vn6lrdpjVvFAqSHbzr8f-83" style="edgeStyle=orthogonalEdgeStyle;rounded=0;orthogonalLoop=1;jettySize=auto;html=1;entryX=0.5;entryY=0;entryDx=0;entryDy=0;" edge="1" parent="1" source="Vn6lrdpjVvFAqSHbzr8f-56" target="Vn6lrdpjVvFAqSHbzr8f-82">
          <mxGeometry relative="1" as="geometry" />
        </mxCell>
        <mxCell id="Vn6lrdpjVvFAqSHbzr8f-56" value="YES" style="rounded=0;whiteSpace=wrap;html=1;fillColor=#d5e8d4;strokeColor=#82b366;" vertex="1" parent="1">
          <mxGeometry x="130" y="325" width="50" height="30" as="geometry" />
        </mxCell>
        <mxCell id="Vn6lrdpjVvFAqSHbzr8f-57" value="&lt;font color=&quot;#080808&quot;&gt;do nothing&lt;/font&gt;" style="ellipse;whiteSpace=wrap;html=1;fillColor=#ffcccc;strokeColor=#36393d;fillStyle=solid;" vertex="1" parent="1">
          <mxGeometry x="670" y="320" width="70" height="40" as="geometry" />
        </mxCell>
        <mxCell id="Vn6lrdpjVvFAqSHbzr8f-64" style="edgeStyle=orthogonalEdgeStyle;rounded=0;orthogonalLoop=1;jettySize=auto;html=1;" edge="1" parent="1" source="Vn6lrdpjVvFAqSHbzr8f-61" target="Vn6lrdpjVvFAqSHbzr8f-63">
          <mxGeometry relative="1" as="geometry" />
        </mxCell>
        <mxCell id="Vn6lrdpjVvFAqSHbzr8f-139" style="edgeStyle=orthogonalEdgeStyle;rounded=0;orthogonalLoop=1;jettySize=auto;html=1;entryX=0;entryY=0.5;entryDx=0;entryDy=0;" edge="1" parent="1" source="Vn6lrdpjVvFAqSHbzr8f-61" target="Vn6lrdpjVvFAqSHbzr8f-138">
          <mxGeometry relative="1" as="geometry" />
        </mxCell>
        <mxCell id="Vn6lrdpjVvFAqSHbzr8f-61" value="player is alive ?" style="shape=hexagon;perimeter=hexagonPerimeter2;whiteSpace=wrap;html=1;fixedSize=1;fillColor=#ffe6cc;strokeColor=#d79b00;" vertex="1" parent="1">
          <mxGeometry x="351" y="90" width="106" height="40" as="geometry" />
        </mxCell>
        <mxCell id="Vn6lrdpjVvFAqSHbzr8f-65" style="edgeStyle=orthogonalEdgeStyle;rounded=0;orthogonalLoop=1;jettySize=auto;html=1;entryX=0.5;entryY=0;entryDx=0;entryDy=0;" edge="1" parent="1" source="Vn6lrdpjVvFAqSHbzr8f-63" target="Vn6lrdpjVvFAqSHbzr8f-2">
          <mxGeometry relative="1" as="geometry" />
        </mxCell>
        <mxCell id="Vn6lrdpjVvFAqSHbzr8f-63" value="YES" style="rounded=0;whiteSpace=wrap;html=1;fillColor=#d5e8d4;strokeColor=#82b366;" vertex="1" parent="1">
          <mxGeometry x="379" y="150" width="50" height="30" as="geometry" />
        </mxCell>
        <mxCell id="Vn6lrdpjVvFAqSHbzr8f-68" value="was on zone" style="shape=hexagon;perimeter=hexagonPerimeter2;whiteSpace=wrap;html=1;fixedSize=1;fillColor=#ffe6cc;strokeColor=#d79b00;" vertex="1" parent="1">
          <mxGeometry x="800" y="236" width="106" height="40" as="geometry" />
        </mxCell>
        <mxCell id="Vn6lrdpjVvFAqSHbzr8f-75" value="YES" style="rounded=0;whiteSpace=wrap;html=1;fillColor=#d5e8d4;strokeColor=#82b366;" vertex="1" parent="1">
          <mxGeometry x="793.75" y="378" width="50" height="30" as="geometry" />
        </mxCell>
        <mxCell id="Vn6lrdpjVvFAqSHbzr8f-80" value="playerLeftZone" style="ellipse;shape=cloud;whiteSpace=wrap;html=1;fillColor=#dae8fc;strokeColor=#6c8ebf;" vertex="1" parent="1">
          <mxGeometry x="500" y="380" width="110" height="60" as="geometry" />
        </mxCell>
        <mxCell id="Vn6lrdpjVvFAqSHbzr8f-87" style="edgeStyle=orthogonalEdgeStyle;rounded=0;orthogonalLoop=1;jettySize=auto;html=1;entryX=0;entryY=0.5;entryDx=0;entryDy=0;" edge="1" parent="1" source="Vn6lrdpjVvFAqSHbzr8f-82" target="Vn6lrdpjVvFAqSHbzr8f-86">
          <mxGeometry relative="1" as="geometry" />
        </mxCell>
        <mxCell id="Vn6lrdpjVvFAqSHbzr8f-89" style="edgeStyle=orthogonalEdgeStyle;rounded=0;orthogonalLoop=1;jettySize=auto;html=1;entryX=1;entryY=0.5;entryDx=0;entryDy=0;" edge="1" parent="1" source="Vn6lrdpjVvFAqSHbzr8f-82" target="Vn6lrdpjVvFAqSHbzr8f-88">
          <mxGeometry relative="1" as="geometry" />
        </mxCell>
        <mxCell id="Vn6lrdpjVvFAqSHbzr8f-82" value="just came in" style="shape=hexagon;perimeter=hexagonPerimeter2;whiteSpace=wrap;html=1;fixedSize=1;fillColor=#ffe6cc;strokeColor=#d79b00;" vertex="1" parent="1">
          <mxGeometry x="40" y="400" width="106" height="40" as="geometry" />
        </mxCell>
        <mxCell id="Vn6lrdpjVvFAqSHbzr8f-85" style="edgeStyle=orthogonalEdgeStyle;rounded=0;orthogonalLoop=1;jettySize=auto;html=1;entryX=0.461;entryY=0.118;entryDx=0;entryDy=0;entryPerimeter=0;" edge="1" parent="1" source="Vn6lrdpjVvFAqSHbzr8f-50" target="Vn6lrdpjVvFAqSHbzr8f-80">
          <mxGeometry relative="1" as="geometry">
            <Array as="points">
              <mxPoint x="495" y="375" />
              <mxPoint x="551" y="375" />
            </Array>
          </mxGeometry>
        </mxCell>
        <mxCell id="Vn6lrdpjVvFAqSHbzr8f-86" value="YES" style="rounded=0;whiteSpace=wrap;html=1;fillColor=#d5e8d4;strokeColor=#82b366;" vertex="1" parent="1">
          <mxGeometry x="120" y="460" width="50" height="30" as="geometry" />
        </mxCell>
        <mxCell id="Vn6lrdpjVvFAqSHbzr8f-88" value="NO" style="rounded=0;whiteSpace=wrap;html=1;fillColor=#f8cecc;strokeColor=#b85450;" vertex="1" parent="1">
          <mxGeometry x="20" y="460" width="50" height="30" as="geometry" />
        </mxCell>
        <mxCell id="Vn6lrdpjVvFAqSHbzr8f-92" value="playerEnteredZone" style="ellipse;shape=cloud;whiteSpace=wrap;html=1;fillColor=#dae8fc;strokeColor=#6c8ebf;" vertex="1" parent="1">
          <mxGeometry x="190" y="460" width="130" height="65" as="geometry" />
        </mxCell>
        <mxCell id="Vn6lrdpjVvFAqSHbzr8f-93" style="edgeStyle=orthogonalEdgeStyle;rounded=0;orthogonalLoop=1;jettySize=auto;html=1;entryX=0.123;entryY=0.51;entryDx=0;entryDy=0;entryPerimeter=0;" edge="1" parent="1" source="Vn6lrdpjVvFAqSHbzr8f-86" target="Vn6lrdpjVvFAqSHbzr8f-92">
          <mxGeometry relative="1" as="geometry" />
        </mxCell>
        <mxCell id="Vn6lrdpjVvFAqSHbzr8f-100" style="edgeStyle=orthogonalEdgeStyle;rounded=0;orthogonalLoop=1;jettySize=auto;html=1;entryX=0;entryY=0;entryDx=0;entryDy=20;entryPerimeter=0;" edge="1" parent="1" source="Vn6lrdpjVvFAqSHbzr8f-55">
          <mxGeometry relative="1" as="geometry">
            <mxPoint x="334" y="340" as="targetPoint" />
          </mxGeometry>
        </mxCell>
        <mxCell id="Vn6lrdpjVvFAqSHbzr8f-112" style="edgeStyle=orthogonalEdgeStyle;rounded=0;orthogonalLoop=1;jettySize=auto;html=1;entryX=0.5;entryY=0;entryDx=0;entryDy=0;" edge="1" parent="1" source="Vn6lrdpjVvFAqSHbzr8f-102" target="Vn6lrdpjVvFAqSHbzr8f-105">
          <mxGeometry relative="1" as="geometry" />
        </mxCell>
        <mxCell id="Vn6lrdpjVvFAqSHbzr8f-114" style="edgeStyle=orthogonalEdgeStyle;rounded=0;orthogonalLoop=1;jettySize=auto;html=1;" edge="1" parent="1" source="Vn6lrdpjVvFAqSHbzr8f-102" target="Vn6lrdpjVvFAqSHbzr8f-113">
          <mxGeometry relative="1" as="geometry" />
        </mxCell>
        <mxCell id="Vn6lrdpjVvFAqSHbzr8f-102" value="are other conquering" style="shape=hexagon;perimeter=hexagonPerimeter2;whiteSpace=wrap;html=1;fixedSize=1;fillColor=#ffe6cc;strokeColor=#d79b00;" vertex="1" parent="1">
          <mxGeometry x="74" y="540" width="106" height="40" as="geometry" />
        </mxCell>
        <mxCell id="Vn6lrdpjVvFAqSHbzr8f-103" style="edgeStyle=orthogonalEdgeStyle;rounded=0;orthogonalLoop=1;jettySize=auto;html=1;entryX=0.006;entryY=0.58;entryDx=0;entryDy=0;entryPerimeter=0;" edge="1" parent="1" source="Vn6lrdpjVvFAqSHbzr8f-88" target="Vn6lrdpjVvFAqSHbzr8f-102">
          <mxGeometry relative="1" as="geometry">
            <Array as="points">
              <mxPoint x="40" y="563" />
            </Array>
          </mxGeometry>
        </mxCell>
        <mxCell id="Vn6lrdpjVvFAqSHbzr8f-104" style="edgeStyle=orthogonalEdgeStyle;rounded=0;orthogonalLoop=1;jettySize=auto;html=1;entryX=0.671;entryY=-0.027;entryDx=0;entryDy=0;entryPerimeter=0;" edge="1" parent="1" source="Vn6lrdpjVvFAqSHbzr8f-86" target="Vn6lrdpjVvFAqSHbzr8f-102">
          <mxGeometry relative="1" as="geometry" />
        </mxCell>
        <mxCell id="Vn6lrdpjVvFAqSHbzr8f-120" style="edgeStyle=orthogonalEdgeStyle;rounded=0;orthogonalLoop=1;jettySize=auto;html=1;entryX=0;entryY=0.5;entryDx=0;entryDy=0;" edge="1" parent="1" source="Vn6lrdpjVvFAqSHbzr8f-105" target="Vn6lrdpjVvFAqSHbzr8f-118">
          <mxGeometry relative="1" as="geometry">
            <Array as="points">
              <mxPoint x="63" y="682" />
            </Array>
          </mxGeometry>
        </mxCell>
        <mxCell id="Vn6lrdpjVvFAqSHbzr8f-105" value="NO" style="rounded=0;whiteSpace=wrap;html=1;fillColor=#f8cecc;strokeColor=#b85450;" vertex="1" parent="1">
          <mxGeometry x="42" y="614" width="50" height="30" as="geometry" />
        </mxCell>
        <mxCell id="Vn6lrdpjVvFAqSHbzr8f-110" value="Not allowed message" style="rounded=1;whiteSpace=wrap;html=1;fillColor=#e1d5e7;strokeColor=#9673a6;" vertex="1" parent="1">
          <mxGeometry x="334" y="320" width="73" height="40" as="geometry" />
        </mxCell>
        <mxCell id="Vn6lrdpjVvFAqSHbzr8f-117" style="edgeStyle=orthogonalEdgeStyle;rounded=0;orthogonalLoop=1;jettySize=auto;html=1;" edge="1" parent="1" source="Vn6lrdpjVvFAqSHbzr8f-113" target="Vn6lrdpjVvFAqSHbzr8f-116">
          <mxGeometry relative="1" as="geometry" />
        </mxCell>
        <mxCell id="Vn6lrdpjVvFAqSHbzr8f-113" value="YES" style="rounded=0;whiteSpace=wrap;html=1;fillColor=#d5e8d4;strokeColor=#82b366;" vertex="1" parent="1">
          <mxGeometry x="218" y="545" width="50" height="30" as="geometry" />
        </mxCell>
        <mxCell id="Vn6lrdpjVvFAqSHbzr8f-116" value="Send conflict mesage" style="rounded=1;whiteSpace=wrap;html=1;fillColor=#e1d5e7;strokeColor=#9673a6;" vertex="1" parent="1">
          <mxGeometry x="300" y="540" width="73" height="40" as="geometry" />
        </mxCell>
        <mxCell id="Vn6lrdpjVvFAqSHbzr8f-122" style="edgeStyle=orthogonalEdgeStyle;rounded=0;orthogonalLoop=1;jettySize=auto;html=1;entryX=0.5;entryY=0;entryDx=0;entryDy=0;" edge="1" parent="1" source="Vn6lrdpjVvFAqSHbzr8f-118" target="Vn6lrdpjVvFAqSHbzr8f-121">
          <mxGeometry relative="1" as="geometry" />
        </mxCell>
        <mxCell id="Vn6lrdpjVvFAqSHbzr8f-124" style="edgeStyle=orthogonalEdgeStyle;rounded=0;orthogonalLoop=1;jettySize=auto;html=1;" edge="1" parent="1" source="Vn6lrdpjVvFAqSHbzr8f-118" target="Vn6lrdpjVvFAqSHbzr8f-123">
          <mxGeometry relative="1" as="geometry" />
        </mxCell>
        <mxCell id="Vn6lrdpjVvFAqSHbzr8f-118" value="want to conquer" style="shape=hexagon;perimeter=hexagonPerimeter2;whiteSpace=wrap;html=1;fixedSize=1;fillColor=#ffe6cc;strokeColor=#d79b00;" vertex="1" parent="1">
          <mxGeometry x="106" y="662" width="106" height="40" as="geometry" />
        </mxCell>
        <mxCell id="Vn6lrdpjVvFAqSHbzr8f-134" style="edgeStyle=orthogonalEdgeStyle;rounded=0;orthogonalLoop=1;jettySize=auto;html=1;entryX=0.5;entryY=0;entryDx=0;entryDy=0;" edge="1" parent="1" source="Vn6lrdpjVvFAqSHbzr8f-121" target="Vn6lrdpjVvFAqSHbzr8f-133">
          <mxGeometry relative="1" as="geometry">
            <Array as="points">
              <mxPoint x="98" y="745" />
              <mxPoint x="98" y="761" />
              <mxPoint x="98" y="761" />
            </Array>
          </mxGeometry>
        </mxCell>
        <mxCell id="Vn6lrdpjVvFAqSHbzr8f-121" value="YES" style="rounded=0;whiteSpace=wrap;html=1;fillColor=#d5e8d4;strokeColor=#82b366;" vertex="1" parent="1">
          <mxGeometry x="134" y="730" width="50" height="30" as="geometry" />
        </mxCell>
        <mxCell id="Vn6lrdpjVvFAqSHbzr8f-126" style="edgeStyle=orthogonalEdgeStyle;rounded=0;orthogonalLoop=1;jettySize=auto;html=1;" edge="1" parent="1" source="Vn6lrdpjVvFAqSHbzr8f-123" target="Vn6lrdpjVvFAqSHbzr8f-125">
          <mxGeometry relative="1" as="geometry" />
        </mxCell>
        <mxCell id="Vn6lrdpjVvFAqSHbzr8f-123" value="NO" style="rounded=0;whiteSpace=wrap;html=1;fillColor=#f8cecc;strokeColor=#b85450;" vertex="1" parent="1">
          <mxGeometry x="257" y="667" width="50" height="30" as="geometry" />
        </mxCell>
        <mxCell id="Vn6lrdpjVvFAqSHbzr8f-125" value="&lt;font color=&quot;#080808&quot;&gt;do nothing&lt;/font&gt;" style="ellipse;whiteSpace=wrap;html=1;fillColor=#ffcccc;strokeColor=#36393d;fillStyle=solid;" vertex="1" parent="1">
          <mxGeometry x="340" y="662" width="70" height="40" as="geometry" />
        </mxCell>
        <mxCell id="Vn6lrdpjVvFAqSHbzr8f-128" value="Leave zone message" style="rounded=1;whiteSpace=wrap;html=1;fillColor=#e1d5e7;strokeColor=#9673a6;" vertex="1" parent="1">
          <mxGeometry x="389" y="380" width="73" height="40" as="geometry" />
        </mxCell>
        <mxCell id="Vn6lrdpjVvFAqSHbzr8f-129" style="edgeStyle=orthogonalEdgeStyle;rounded=0;orthogonalLoop=1;jettySize=auto;html=1;entryX=0.576;entryY=0.041;entryDx=0;entryDy=0;entryPerimeter=0;" edge="1" parent="1" source="Vn6lrdpjVvFAqSHbzr8f-50" target="Vn6lrdpjVvFAqSHbzr8f-128">
          <mxGeometry relative="1" as="geometry" />
        </mxCell>
        <mxCell id="Vn6lrdpjVvFAqSHbzr8f-130" value="Enter zone message" style="rounded=1;whiteSpace=wrap;html=1;fillColor=#e1d5e7;strokeColor=#9673a6;" vertex="1" parent="1">
          <mxGeometry x="202" y="408" width="73" height="40" as="geometry" />
        </mxCell>
        <mxCell id="Vn6lrdpjVvFAqSHbzr8f-132" style="edgeStyle=orthogonalEdgeStyle;rounded=0;orthogonalLoop=1;jettySize=auto;html=1;entryX=0.009;entryY=0.583;entryDx=0;entryDy=0;entryPerimeter=0;" edge="1" parent="1" source="Vn6lrdpjVvFAqSHbzr8f-86" target="Vn6lrdpjVvFAqSHbzr8f-130">
          <mxGeometry relative="1" as="geometry">
            <Array as="points">
              <mxPoint x="150" y="431" />
              <mxPoint x="182" y="431" />
            </Array>
          </mxGeometry>
        </mxCell>
        <mxCell id="Vn6lrdpjVvFAqSHbzr8f-133" value="Conquering message" style="rounded=1;whiteSpace=wrap;html=1;fillColor=#e1d5e7;strokeColor=#9673a6;" vertex="1" parent="1">
          <mxGeometry x="61" y="781" width="73" height="40" as="geometry" />
        </mxCell>
        <mxCell id="Vn6lrdpjVvFAqSHbzr8f-143" style="edgeStyle=orthogonalEdgeStyle;rounded=0;orthogonalLoop=1;jettySize=auto;html=1;entryX=0;entryY=0.75;entryDx=0;entryDy=0;" edge="1" parent="1" source="Vn6lrdpjVvFAqSHbzr8f-135" target="Vn6lrdpjVvFAqSHbzr8f-142">
          <mxGeometry relative="1" as="geometry">
            <Array as="points">
              <mxPoint x="660" y="197" />
              <mxPoint x="717" y="197" />
            </Array>
          </mxGeometry>
        </mxCell>
        <mxCell id="Vn6lrdpjVvFAqSHbzr8f-144" style="edgeStyle=orthogonalEdgeStyle;rounded=0;orthogonalLoop=1;jettySize=auto;html=1;entryX=0;entryY=0.5;entryDx=0;entryDy=0;" edge="1" parent="1" source="Vn6lrdpjVvFAqSHbzr8f-135" target="Vn6lrdpjVvFAqSHbzr8f-141">
          <mxGeometry relative="1" as="geometry">
            <Array as="points">
              <mxPoint x="656" y="115" />
            </Array>
          </mxGeometry>
        </mxCell>
        <mxCell id="Vn6lrdpjVvFAqSHbzr8f-135" value="was conquering" style="shape=hexagon;perimeter=hexagonPerimeter2;whiteSpace=wrap;html=1;fixedSize=1;fillColor=#ffe6cc;strokeColor=#d79b00;" vertex="1" parent="1">
          <mxGeometry x="603" y="125" width="106" height="40" as="geometry" />
        </mxCell>
        <mxCell id="Vn6lrdpjVvFAqSHbzr8f-140" style="edgeStyle=orthogonalEdgeStyle;rounded=0;orthogonalLoop=1;jettySize=auto;html=1;entryX=0;entryY=0.5;entryDx=0;entryDy=0;" edge="1" parent="1" source="Vn6lrdpjVvFAqSHbzr8f-138" target="Vn6lrdpjVvFAqSHbzr8f-135">
          <mxGeometry relative="1" as="geometry" />
        </mxCell>
        <mxCell id="Vn6lrdpjVvFAqSHbzr8f-138" value="NO" style="rounded=0;whiteSpace=wrap;html=1;fillColor=#f8cecc;strokeColor=#b85450;" vertex="1" parent="1">
          <mxGeometry x="493" y="115" width="50" height="30" as="geometry" />
        </mxCell>
        <mxCell id="Vn6lrdpjVvFAqSHbzr8f-141" value="YES" style="rounded=0;whiteSpace=wrap;html=1;fillColor=#d5e8d4;strokeColor=#82b366;" vertex="1" parent="1">
          <mxGeometry x="737" y="100" width="50" height="30" as="geometry" />
        </mxCell>
        <mxCell id="Vn6lrdpjVvFAqSHbzr8f-157" style="edgeStyle=orthogonalEdgeStyle;rounded=0;orthogonalLoop=1;jettySize=auto;html=1;entryX=0.5;entryY=0;entryDx=0;entryDy=0;" edge="1" parent="1" source="Vn6lrdpjVvFAqSHbzr8f-142" target="Vn6lrdpjVvFAqSHbzr8f-154">
          <mxGeometry relative="1" as="geometry" />
        </mxCell>
        <mxCell id="Vn6lrdpjVvFAqSHbzr8f-142" value="NO" style="rounded=0;whiteSpace=wrap;html=1;fillColor=#f8cecc;strokeColor=#b85450;" vertex="1" parent="1">
          <mxGeometry x="737" y="174" width="50" height="30" as="geometry" />
        </mxCell>
        <mxCell id="Vn6lrdpjVvFAqSHbzr8f-145" value="stopConquering" style="ellipse;shape=cloud;whiteSpace=wrap;html=1;fillColor=#dae8fc;strokeColor=#6c8ebf;" vertex="1" parent="1">
          <mxGeometry x="758" y="28" width="120" height="60" as="geometry" />
        </mxCell>
        <mxCell id="Vn6lrdpjVvFAqSHbzr8f-149" style="edgeStyle=orthogonalEdgeStyle;rounded=0;orthogonalLoop=1;jettySize=auto;html=1;entryX=0.567;entryY=0.932;entryDx=0;entryDy=0;entryPerimeter=0;" edge="1" parent="1" source="Vn6lrdpjVvFAqSHbzr8f-141" target="Vn6lrdpjVvFAqSHbzr8f-145">
          <mxGeometry relative="1" as="geometry">
            <Array as="points">
              <mxPoint x="826" y="108" />
            </Array>
          </mxGeometry>
        </mxCell>
        <mxCell id="Vn6lrdpjVvFAqSHbzr8f-155" value="job allowed" style="shape=hexagon;perimeter=hexagonPerimeter2;whiteSpace=wrap;html=1;fixedSize=1;fillColor=#ffe6cc;strokeColor=#d79b00;" vertex="1" parent="1">
          <mxGeometry x="800" y="300" width="106" height="40" as="geometry" />
        </mxCell>
        <mxCell id="Vn6lrdpjVvFAqSHbzr8f-156" value="AND" style="text;html=1;align=center;verticalAlign=middle;whiteSpace=wrap;rounded=0;" vertex="1" parent="1">
          <mxGeometry x="823" y="275" width="60" height="30" as="geometry" />
        </mxCell>
        <mxCell id="Vn6lrdpjVvFAqSHbzr8f-158" style="edgeStyle=orthogonalEdgeStyle;rounded=0;orthogonalLoop=1;jettySize=auto;html=1;" edge="1" parent="1" source="Vn6lrdpjVvFAqSHbzr8f-159" target="Vn6lrdpjVvFAqSHbzr8f-160">
          <mxGeometry relative="1" as="geometry" />
        </mxCell>
        <mxCell id="Vn6lrdpjVvFAqSHbzr8f-159" value="NO" style="rounded=0;whiteSpace=wrap;html=1;fillColor=#f8cecc;strokeColor=#b85450;" vertex="1" parent="1">
          <mxGeometry x="938" y="305" width="50" height="30" as="geometry" />
        </mxCell>
        <mxCell id="Vn6lrdpjVvFAqSHbzr8f-160" value="&lt;font color=&quot;#080808&quot;&gt;do nothing&lt;/font&gt;" style="ellipse;whiteSpace=wrap;html=1;fillColor=#ffcccc;strokeColor=#36393d;fillStyle=solid;" vertex="1" parent="1">
          <mxGeometry x="1018" y="300" width="70" height="40" as="geometry" />
        </mxCell>
        <mxCell id="Vn6lrdpjVvFAqSHbzr8f-164" style="edgeStyle=orthogonalEdgeStyle;rounded=0;orthogonalLoop=1;jettySize=auto;html=1;entryX=0.4;entryY=0.1;entryDx=0;entryDy=0;entryPerimeter=0;" edge="1" parent="1" source="Vn6lrdpjVvFAqSHbzr8f-75" target="Vn6lrdpjVvFAqSHbzr8f-20">
          <mxGeometry relative="1" as="geometry" />
        </mxCell>
      </root>
    </mxGraphModel>
  </diagram>
</mxfile>
